<mxfile host="app.diagrams.net" modified="2023-09-26T00:15:18.947Z" agent="Mozilla/5.0 (Windows NT 10.0; Win64; x64) AppleWebKit/537.36 (KHTML, like Gecko) Chrome/116.0.0.0 Safari/537.36" version="21.8.0" etag="aRsiAPFccvOlqL38b2bd" type="github">
  <diagram name="페이지-1" id="PqFh_OC9blRblc3Nnd-B">
    <mxGraphModel>
      <root>
        <mxCell id="0" />
        <mxCell id="1" parent="0" />
      </root>
    </mxGraphModel>
  </diagram>
</mxfile>
